<mxfile host="app.diagrams.net" agent="Mozilla/5.0 (Windows NT 10.0; Win64; x64) AppleWebKit/537.36 (KHTML, like Gecko) Chrome/131.0.0.0 Safari/537.36" version="25.0.3">
  <diagram name="Page-1" id="N7BVuod24d6A2M4fvefX">
    <mxGraphModel dx="989" dy="2709" grid="1" gridSize="10" guides="1" tooltips="1" connect="1" arrows="1" fold="1" page="1" pageScale="1" pageWidth="850" pageHeight="1100" math="0" shadow="0">
      <root>
        <mxCell id="0" />
        <mxCell id="1" parent="0" />
        <mxCell id="NxBqsntaEVG0j33XrsKh-18" value="Internet Gateway" style="sketch=0;outlineConnect=0;fontColor=#232F3E;gradientColor=none;fillColor=#8C4FFF;strokeColor=none;dashed=0;verticalLabelPosition=bottom;verticalAlign=top;align=center;html=1;fontSize=12;fontStyle=0;aspect=fixed;pointerEvents=1;shape=mxgraph.aws4.internet_gateway;" vertex="1" parent="1">
          <mxGeometry x="565" y="-710" width="48" height="48" as="geometry" />
        </mxCell>
        <mxCell id="NxBqsntaEVG0j33XrsKh-23" value="" style="sketch=0;points=[[0,0,0],[0.25,0,0],[0.5,0,0],[0.75,0,0],[1,0,0],[0,1,0],[0.25,1,0],[0.5,1,0],[0.75,1,0],[1,1,0],[0,0.25,0],[0,0.5,0],[0,0.75,0],[1,0.25,0],[1,0.5,0],[1,0.75,0]];outlineConnect=0;fontColor=#232F3E;fillColor=#ED7100;strokeColor=#ffffff;dashed=0;verticalLabelPosition=bottom;verticalAlign=top;align=center;html=1;fontSize=12;fontStyle=0;aspect=fixed;shape=mxgraph.aws4.resourceIcon;resIcon=mxgraph.aws4.ecr;" vertex="1" parent="1">
          <mxGeometry x="160" y="-1240" width="78" height="78" as="geometry" />
        </mxCell>
        <mxCell id="NxBqsntaEVG0j33XrsKh-26" value="" style="endArrow=classic;html=1;rounded=0;" edge="1" parent="1" source="NxBqsntaEVG0j33XrsKh-18" target="NxBqsntaEVG0j33XrsKh-24">
          <mxGeometry width="50" height="50" relative="1" as="geometry">
            <mxPoint x="628" y="-600" as="sourcePoint" />
            <mxPoint x="600" y="-550" as="targetPoint" />
          </mxGeometry>
        </mxCell>
        <mxCell id="NxBqsntaEVG0j33XrsKh-30" value="" style="endArrow=classic;html=1;rounded=0;exitX=0.5;exitY=1;exitDx=0;exitDy=0;entryX=0.5;entryY=0;entryDx=0;entryDy=0;" edge="1" parent="1" source="NxBqsntaEVG0j33XrsKh-14" target="NxBqsntaEVG0j33XrsKh-15">
          <mxGeometry width="50" height="50" relative="1" as="geometry">
            <mxPoint x="290" y="-390" as="sourcePoint" />
            <mxPoint x="340" y="-440" as="targetPoint" />
          </mxGeometry>
        </mxCell>
        <mxCell id="NxBqsntaEVG0j33XrsKh-35" value="" style="group" vertex="1" connectable="0" parent="1">
          <mxGeometry x="220" y="-370" width="200" height="170" as="geometry" />
        </mxCell>
        <mxCell id="NxBqsntaEVG0j33XrsKh-15" value="Private subnet" style="points=[[0,0],[0.25,0],[0.5,0],[0.75,0],[1,0],[1,0.25],[1,0.5],[1,0.75],[1,1],[0.75,1],[0.5,1],[0.25,1],[0,1],[0,0.75],[0,0.5],[0,0.25]];outlineConnect=0;gradientColor=none;html=1;whiteSpace=wrap;fontSize=12;fontStyle=0;container=0;pointerEvents=0;collapsible=0;recursiveResize=0;shape=mxgraph.aws4.group;grIcon=mxgraph.aws4.group_security_group;grStroke=0;strokeColor=#00A4A6;fillColor=#E6F6F7;verticalAlign=top;align=left;spacingLeft=30;fontColor=#147EBA;dashed=0;" vertex="1" parent="NxBqsntaEVG0j33XrsKh-35">
          <mxGeometry width="200" height="170" as="geometry" />
        </mxCell>
        <mxCell id="NxBqsntaEVG0j33XrsKh-29" value="Security group" style="fillColor=none;strokeColor=#DD3522;verticalAlign=top;fontStyle=0;fontColor=#DD3522;whiteSpace=wrap;html=1;" vertex="1" parent="NxBqsntaEVG0j33XrsKh-35">
          <mxGeometry x="6.0606060606060606" y="44.347826086956516" width="187.87878787878788" height="110.8695652173913" as="geometry" />
        </mxCell>
        <mxCell id="NxBqsntaEVG0j33XrsKh-21" value="Server" style="sketch=0;points=[[0,0,0],[0.25,0,0],[0.5,0,0],[0.75,0,0],[1,0,0],[0,1,0],[0.25,1,0],[0.5,1,0],[0.75,1,0],[1,1,0],[0,0.25,0],[0,0.5,0],[0,0.75,0],[1,0.25,0],[1,0.5,0],[1,0.75,0]];outlineConnect=0;fontColor=#232F3E;fillColor=#ED7100;strokeColor=#ffffff;dashed=0;verticalLabelPosition=bottom;verticalAlign=top;align=center;html=1;fontSize=12;fontStyle=0;aspect=fixed;shape=mxgraph.aws4.resourceIcon;resIcon=mxgraph.aws4.ecs;" vertex="1" parent="NxBqsntaEVG0j33XrsKh-35">
          <mxGeometry x="82.12121212121212" y="70.58695652173913" width="35.75757575757576" height="35.75757575757576" as="geometry" />
        </mxCell>
        <mxCell id="NxBqsntaEVG0j33XrsKh-14" value="Public subnet" style="points=[[0,0],[0.25,0],[0.5,0],[0.75,0],[1,0],[1,0.25],[1,0.5],[1,0.75],[1,1],[0.75,1],[0.5,1],[0.25,1],[0,1],[0,0.75],[0,0.5],[0,0.25]];outlineConnect=0;gradientColor=none;html=1;whiteSpace=wrap;fontSize=12;fontStyle=0;container=0;pointerEvents=0;collapsible=0;recursiveResize=0;shape=mxgraph.aws4.group;grIcon=mxgraph.aws4.group_security_group;grStroke=0;strokeColor=#7AA116;fillColor=#F2F6E8;verticalAlign=top;align=left;spacingLeft=30;fontColor=#248814;dashed=0;" vertex="1" parent="1">
          <mxGeometry x="220" y="-580" width="200" height="180" as="geometry" />
        </mxCell>
        <mxCell id="NxBqsntaEVG0j33XrsKh-27" value="" style="endArrow=classic;html=1;rounded=0;" edge="1" parent="1" source="NxBqsntaEVG0j33XrsKh-24" target="NxBqsntaEVG0j33XrsKh-22">
          <mxGeometry width="50" height="50" relative="1" as="geometry">
            <mxPoint x="290" y="-590" as="sourcePoint" />
            <mxPoint x="340" y="-640" as="targetPoint" />
          </mxGeometry>
        </mxCell>
        <mxCell id="NxBqsntaEVG0j33XrsKh-32" value="" style="endArrow=classic;html=1;rounded=0;" edge="1" parent="1" source="NxBqsntaEVG0j33XrsKh-15" target="NxBqsntaEVG0j33XrsKh-16">
          <mxGeometry width="50" height="50" relative="1" as="geometry">
            <mxPoint x="320" y="-380" as="sourcePoint" />
            <mxPoint x="370" y="-430" as="targetPoint" />
            <Array as="points">
              <mxPoint x="470" y="-285" />
              <mxPoint x="470" y="-560" />
            </Array>
          </mxGeometry>
        </mxCell>
        <mxCell id="NxBqsntaEVG0j33XrsKh-28" value="Security group" style="fillColor=none;strokeColor=#DD3522;verticalAlign=top;fontStyle=0;fontColor=#DD3522;whiteSpace=wrap;html=1;container=0;" vertex="1" parent="1">
          <mxGeometry x="229.09" y="-510" width="181.82" height="102.85" as="geometry" />
        </mxCell>
        <mxCell id="NxBqsntaEVG0j33XrsKh-16" value="NAT Gateway" style="sketch=0;outlineConnect=0;fontColor=#232F3E;gradientColor=none;fillColor=#8C4FFF;strokeColor=none;dashed=0;verticalLabelPosition=bottom;verticalAlign=top;align=center;html=1;fontSize=12;fontStyle=0;aspect=fixed;pointerEvents=1;shape=mxgraph.aws4.nat_gateway;container=0;" vertex="1" parent="1">
          <mxGeometry x="373.68" y="-579" width="37.23" height="37.23" as="geometry" />
        </mxCell>
        <mxCell id="NxBqsntaEVG0j33XrsKh-22" value="Client" style="sketch=0;points=[[0,0,0],[0.25,0,0],[0.5,0,0],[0.75,0,0],[1,0,0],[0,1,0],[0.25,1,0],[0.5,1,0],[0.75,1,0],[1,1,0],[0,0.25,0],[0,0.5,0],[0,0.75,0],[1,0.25,0],[1,0.5,0],[1,0.75,0]];outlineConnect=0;fontColor=#232F3E;fillColor=#ED7100;strokeColor=#ffffff;dashed=0;verticalLabelPosition=bottom;verticalAlign=top;align=center;html=1;fontSize=12;fontStyle=0;aspect=fixed;shape=mxgraph.aws4.resourceIcon;resIcon=mxgraph.aws4.ecs;container=0;" vertex="1" parent="1">
          <mxGeometry x="298.86" y="-480" width="42.28" height="42.28" as="geometry" />
        </mxCell>
        <mxCell id="NxBqsntaEVG0j33XrsKh-38" value="" style="endArrow=classic;html=1;rounded=0;" edge="1" parent="1" source="NxBqsntaEVG0j33XrsKh-16" target="NxBqsntaEVG0j33XrsKh-18">
          <mxGeometry width="50" height="50" relative="1" as="geometry">
            <mxPoint x="350" y="-470" as="sourcePoint" />
            <mxPoint x="400" y="-520" as="targetPoint" />
          </mxGeometry>
        </mxCell>
        <mxCell id="NxBqsntaEVG0j33XrsKh-39" value="" style="group" vertex="1" connectable="0" parent="1">
          <mxGeometry x="529" y="-520" width="120" height="120" as="geometry" />
        </mxCell>
        <mxCell id="NxBqsntaEVG0j33XrsKh-31" value="Security group" style="fillColor=none;strokeColor=#DD3522;verticalAlign=top;fontStyle=0;fontColor=#DD3522;whiteSpace=wrap;html=1;container=1;" vertex="1" parent="NxBqsntaEVG0j33XrsKh-39">
          <mxGeometry width="120" height="120" as="geometry" />
        </mxCell>
        <mxCell id="NxBqsntaEVG0j33XrsKh-24" value="ALB" style="sketch=0;outlineConnect=0;fontColor=#232F3E;gradientColor=none;fillColor=#8C4FFF;strokeColor=none;dashed=0;verticalLabelPosition=bottom;verticalAlign=top;align=center;html=1;fontSize=12;fontStyle=0;aspect=fixed;pointerEvents=1;shape=mxgraph.aws4.application_load_balancer;" vertex="1" parent="NxBqsntaEVG0j33XrsKh-39">
          <mxGeometry x="31" y="33.5" width="58" height="58" as="geometry" />
        </mxCell>
      </root>
    </mxGraphModel>
  </diagram>
</mxfile>
